# xmcd
#
# Track frame offsets: 
#        150
#        22508
#        41356
#        65459
#        88685
#        103808
#        122189
#        146430
#        167864
#        188955
#        209702
#        227340
#
# Disc length: 3281 seconds
#
# Revision: 0
# Processed by: cddbd v1.5.2PL0 Copyright (c) Steve Scherf et al.
# Submitted via: ExactAudioCopy v1.1
#
DISCID=9f0ccf0c
DTITLE=天艺 - 名人名曲收藏家4
DYEAR=2017
DGENRE=
TTITLE0=陈宁 - 哭砂 The Weeping Sand
TTITLE1=张玮伽  - 别找我麻烦 Don't Bother me
TTITLE2=白玛多吉 - 月光曲 Moonlight Sonata
TTITLE3=乔维怡 - 不管有多苦 No Matter How Bitter
TTITLE4=钟明秋 - 春风吻上我的脸 A Spring Breeze Kissing My Face
TTITLE5=胡又天 - 灯塔 Lighthouse 
TTITLE6=肖玛 - 卡门 Kamen
TTITLE7=甘雅丹 - 走西口 Zou Xikou
TTITLE8=鸿雁组合 - 乌兰巴托的夜 Night of Ulan Bator
TTITLE9=龚玥 - 二泉吟 Er Quanyin
TTITLE10=陶辚竹 - 在树上唱歌 Sing in The Tree
TTITLE11=童丽 - 容易受伤的女人 The Vulnerable Woman
EXTD=
EXTT0=
EXTT1=
EXTT2=
EXTT3=
EXTT4=
EXTT5=
EXTT6=
EXTT7=
EXTT8=
EXTT9=
EXTT10=
EXTT11=
PLAYORDER=
